<svg width="73" height="69" viewBox="0 0 73 69" fill="none" xmlns="http://www.w3.org/2000/svg">
<path d="M54.8715 38.9562C53.594 40.135 52.864 41.8312 53.0465 43.6425C53.3203 46.7475 56.3315 49.0187 59.6165 49.0187H65.3957V52.44C65.3957 58.3912 60.2552 63.25 53.959 63.25H23.2077C24.1507 62.5025 24.9719 61.5825 25.6107 60.5475C26.7361 58.8225 27.3748 56.7812 27.3748 54.625C27.3748 48.2712 21.9303 43.125 15.2082 43.125C12.349 43.125 9.70275 44.0738 7.604 45.655V33.0913C7.604 27.14 12.7444 22.2812 19.0407 22.2812H53.959C60.2552 22.2812 65.3957 27.14 65.3957 33.0913V37.2313H59.2515C57.5482 37.2313 55.9969 37.8637 54.8715 38.9562Z" stroke="black" stroke-width="1.5" stroke-linecap="round" stroke-linejoin="round"/>
<path d="M7.604 35.6795V22.5409C7.604 19.1196 9.82441 16.072 13.2007 14.8645L37.3515 6.2395C41.1232 4.88825 45.1686 7.53334 45.1686 11.3571V22.2821" stroke="black" stroke-width="1.5" stroke-linecap="round" stroke-linejoin="round"/>
<path d="M68.6162 40.1638V46.0865C68.6162 47.6677 67.2779 48.9614 65.5745 49.0189H59.6129C56.3279 49.0189 53.3166 46.7476 53.0429 43.6426C52.8604 41.8314 53.5904 40.1351 54.8679 38.9564C55.9933 37.8639 57.5446 37.2314 59.2479 37.2314H65.5745C67.2779 37.2889 68.6162 38.5826 68.6162 40.1638Z" stroke="black" stroke-width="1.5" stroke-linecap="round" stroke-linejoin="round"/>
<path d="M21.2915 34.5H42.5832" stroke="black" stroke-width="1.5" stroke-linecap="round" stroke-linejoin="round"/>
<path d="M27.3748 54.625C27.3748 56.7812 26.7361 58.8225 25.6107 60.5475C24.9719 61.5825 24.1507 62.5025 23.2077 63.25C21.0786 65.0612 18.2803 66.125 15.2082 66.125C10.7673 66.125 6.90443 63.8825 4.80568 60.5475C3.68026 58.8225 3.0415 56.7812 3.0415 54.625C3.0415 51.0025 4.80567 47.7538 7.604 45.655C9.70275 44.0738 12.349 43.125 15.2082 43.125C21.9303 43.125 27.3748 48.2712 27.3748 54.625Z" stroke="black" stroke-width="1.5" stroke-miterlimit="10" stroke-linecap="round" stroke-linejoin="round"/>
<rect x="9.125" y="52.2832" width="12.1667" height="0.974702" fill="black"/>
<rect x="9.125" y="56.1836" width="12.1667" height="0.974702" fill="black"/>
<rect x="17.5474" y="49.0264" width="2.33974" height="11.2091" fill="black"/>
<path d="M11.0107 50.1124L12.8695 49.0282L19.4211 59.1176L17.549 60.2372L11.0107 50.1124Z" fill="black"/>
<rect x="10.5283" y="49.0264" width="2.33974" height="11.2091" fill="black"/>
</svg>
