<svg width="58" height="51" viewBox="0 0 58 51" fill="none" xmlns="http://www.w3.org/2000/svg">
<path d="M49.7794 32.5557C49.1238 30.387 48.0394 28.4957 46.602 26.9574C44.7611 24.8644 42.315 23.427 39.5663 22.7965C38.1794 16.4922 34.2958 11.953 28.7732 10.2634C22.7714 8.39733 15.8114 10.213 11.4488 14.7774C7.6157 18.787 6.35482 24.3096 7.84265 30.1853C2.79915 31.4209 0.30261 35.6323 0.0252175 39.6419C-2.34857e-08 39.9192 0 40.1714 0 40.4236C0 45.1645 3.10176 50.4854 10.0114 50.9897H36.1872C39.7681 50.9897 43.1976 49.6532 45.8203 47.2575C49.9307 43.6514 51.4438 38.0279 49.7794 32.5557Z" fill="#F7941D"/>
<path d="M40.3483 25.271C45.629 25.271 49.9099 21.2959 49.9099 16.3923C49.9099 11.4888 45.629 7.51367 40.3483 7.51367C35.0675 7.51367 30.7866 11.4888 30.7866 16.3923C30.7866 21.2959 35.0675 25.271 40.3483 25.271Z" stroke="#F7941D" stroke-width="3" stroke-linecap="round" stroke-linejoin="round"/>
<path d="M50.6598 6.81563L50.851 6.63806M29.8448 26.1438L30.0361 25.9663M40.3479 2.84072V2.73145M40.3479 30.0504V29.9412M25.7554 16.3909H25.6377M55.0582 16.3909H54.9405M30.0361 6.81563L29.8448 6.63806M50.851 26.1438L50.6598 25.9663" stroke="#F7941D" stroke-width="5" stroke-linecap="round" stroke-linejoin="round"/>
</svg>
