<svg width="7" height="7" viewBox="0 0 7 7" fill="none" xmlns="http://www.w3.org/2000/svg">
<g clip-path="url(#clip0_201_26597)">
<path d="M3.47315 0.759766C1.95707 0.759766 0.721432 1.9954 0.721432 3.51148C0.721432 3.99741 0.849161 4.46945 1.08796 4.88595L0.699219 6.31318L2.15699 5.92999C2.55961 6.14935 3.01222 6.26597 3.47315 6.26597C4.98923 6.26597 6.22486 5.03034 6.22486 3.51426C6.22486 2.77843 5.93886 2.08703 5.41962 1.56779C4.90038 1.04577 4.20898 0.759766 3.47315 0.759766ZM3.47593 1.22348C4.0868 1.22348 4.6588 1.46227 5.09197 1.89544C5.52236 2.3286 5.76116 2.90338 5.76116 3.51426C5.76116 4.77488 4.73377 5.79949 3.47315 5.79949C3.0622 5.79949 2.65957 5.6912 2.30971 5.48017L2.22641 5.43296L1.36007 5.66065L1.59054 4.81653L1.53501 4.72768C1.30732 4.36948 1.18514 3.94465 1.18514 3.51148C1.18792 2.25086 2.21252 1.22348 3.47593 1.22348ZM2.49852 2.23975C2.4541 2.23975 2.37913 2.25641 2.31526 2.32583C2.25417 2.39525 2.07369 2.56462 2.07369 2.90061C2.07369 3.23936 2.32082 3.56424 2.35136 3.61144C2.39023 3.65865 2.84006 4.35282 3.53146 4.64715C3.69529 4.72213 3.82301 4.76378 3.92297 4.79432C4.0868 4.84708 4.23674 4.83875 4.35614 4.82209C4.48942 4.80265 4.76154 4.65548 4.81985 4.49444C4.87816 4.33339 4.87816 4.19733 4.8615 4.16678C4.84206 4.13902 4.79764 4.12236 4.72822 4.09181C4.6588 4.05294 4.32004 3.88634 4.25896 3.86412C4.19509 3.84191 4.15622 3.8308 4.10346 3.89744C4.05903 3.96686 3.92575 4.12236 3.88688 4.16678C3.84523 4.21399 3.80635 4.21954 3.73971 4.18622C3.66752 4.15012 3.44538 4.07793 3.18437 3.84469C2.97889 3.66142 2.84284 3.43651 2.80119 3.36709C2.76786 3.30045 2.79841 3.2588 2.83173 3.22826C2.86227 3.19771 2.9067 3.14773 2.93447 3.10608C2.97056 3.06721 2.98167 3.03666 3.00389 2.99224C3.0261 2.94503 3.01499 2.90616 2.99833 2.87284C2.98167 2.8423 2.84284 2.49798 2.78453 2.36193C2.72899 2.22864 2.67346 2.2453 2.62903 2.24253C2.59016 2.24253 2.54573 2.23975 2.49852 2.23975Z" fill="white"/>
</g>
<defs>
<clipPath id="clip0_201_26597">
<rect width="6.6641" height="6.6641" fill="white" transform="translate(0.130005 0.204102)"/>
</clipPath>
</defs>
</svg>
