<svg width="40" height="40" viewBox="0 0 40 40" fill="none" xmlns="http://www.w3.org/2000/svg">
<g clip-path="url(#clip0_957_7907)">
<path d="M30.625 0H9.375C4.19733 0 0 4.19733 0 9.375V30.625C0 35.8027 4.19733 40 9.375 40H30.625C35.8027 40 40 35.8027 40 30.625V9.375C40 4.19733 35.8027 0 30.625 0Z" fill="#006838"/>
<path d="M22.3845 39V24.4033H27.1014L27.8068 18.7149H22.3845V15.084C22.3845 13.4374 22.8261 12.3131 25.0987 12.3131H28V7.21714C26.5951 7.06509 25.1832 6.99279 23.7707 7.00057C19.5936 7.00057 16.7169 9.6441 16.7169 14.5203V18.7149H12V24.4033H16.7169V39H22.3845Z" fill="white"/>
</g>
<defs>
<clipPath id="clip0_957_7907">
<rect width="40" height="40" fill="white"/>
</clipPath>
</defs>
</svg>
