<svg width="61" height="61" viewBox="0 0 61 61" fill="none" xmlns="http://www.w3.org/2000/svg">
<path d="M46.6751 42.575L47.6501 50.475C47.9001 52.55 45.6751 53.9999 43.9001 52.9249L33.4251 46.7C32.2751 46.7 31.1501 46.625 30.0501 46.475C31.9001 44.3 33.0001 41.55 33.0001 38.575C33.0001 31.475 26.8501 25.7251 19.2501 25.7251C16.3501 25.7251 13.6751 26.55 11.4501 28C11.3751 27.375 11.3501 26.75 11.3501 26.1C11.3501 14.725 21.2251 5.5 33.4251 5.5C45.6251 5.5 55.5001 14.725 55.5001 26.1C55.5001 32.85 52.0251 38.825 46.6751 42.575Z" stroke="#F7941D" stroke-width="1.5" stroke-linecap="round" stroke-linejoin="round"/>
<path d="M33 38.5745C33 41.5495 31.9 44.2996 30.05 46.4746C27.575 49.4746 23.65 51.3995 19.25 51.3995L12.725 55.2745C11.625 55.9495 10.225 55.0245 10.375 53.7495L11 48.8246C7.64999 46.4996 5.5 42.7745 5.5 38.5745C5.5 34.1745 7.85001 30.2995 11.45 27.9995C13.675 26.5495 16.35 25.7246 19.25 25.7246C26.85 25.7246 33 31.4745 33 38.5745Z" stroke="#F7941D" stroke-width="1.5" stroke-linecap="round" stroke-linejoin="round"/>
</svg>
