<svg width="8" height="7" viewBox="0 0 8 7" fill="none" xmlns="http://www.w3.org/2000/svg">
<g clip-path="url(#clip0_201_16741)">
<path d="M4.60817 0.882812C4.01903 0.882813 3.45402 1.11685 3.03743 1.53344C2.62084 1.95002 2.38681 2.51504 2.38681 3.10418C2.38681 3.69332 2.62084 4.25833 3.03743 4.67492C3.45402 5.09151 4.01903 5.32554 4.60817 5.32554C5.19731 5.32554 5.76233 5.09151 6.17891 4.67492C6.5955 4.25833 6.82954 3.69332 6.82954 3.10418H6.27419C6.27419 4.02604 5.53004 4.7702 4.60817 4.7702C4.16631 4.7702 3.74255 4.59467 3.43011 4.28223C3.11767 3.96979 2.94215 3.54603 2.94215 3.10418C2.94215 2.66232 3.11767 2.23856 3.43011 1.92612C3.74255 1.61368 4.16631 1.43815 4.60817 1.43815C4.72757 1.43815 4.84697 1.45204 4.96081 1.47703L5.40786 1.03275C5.15241 0.932793 4.88584 0.882812 4.60817 0.882812ZM6.43802 1.32153L4.60817 3.15138L3.94731 2.49053L3.5558 2.88482L4.60817 3.93719L6.82954 1.71582L6.43802 1.32153ZM2.0897 1.94351C1.57601 2.36557 1.27612 2.99589 1.27612 3.65952C1.27612 4.24866 1.51016 4.81367 1.92675 5.23026C2.34333 5.64685 2.90835 5.88088 3.49749 5.88088C3.6752 5.88088 3.85013 5.85867 4.01951 5.81702C3.53081 5.70873 3.08098 5.46438 2.71168 5.1284C2.17022 4.83962 1.83146 4.27317 1.83146 3.65952C1.83146 3.57622 1.83979 3.49569 1.8509 3.41239C1.83979 3.30965 1.83146 3.20692 1.83146 3.10418C1.83146 2.70433 1.92032 2.30726 2.0897 1.94351Z" fill="black"/>
</g>
<defs>
<clipPath id="clip0_201_16741">
<rect width="6.6641" height="6.6641" fill="white" transform="translate(0.720825 0.328125)"/>
</clipPath>
</defs>
</svg>
