<svg width="60" height="60" viewBox="0 0 60 60" fill="none" xmlns="http://www.w3.org/2000/svg">
<path d="M34.9506 19.375H25.0256C21.9006 19.375 19.3506 21.9 19.3506 25.05V34.975C19.3506 38.1 21.8756 40.65 25.0256 40.65H34.9506C38.0756 40.65 40.6256 38.125 40.6256 34.975V25.05C40.6256 21.9 38.1006 19.375 34.9506 19.375ZM33.7506 32.45L31.5256 36.325C31.2006 36.9 30.6006 37.2 30.0006 37.2C29.7006 37.2 29.3756 37.125 29.1256 36.975C28.2756 36.5 27.9756 35.425 28.4756 34.575L30.0756 31.8H28.6756C27.5506 31.8 26.6256 31.3 26.1256 30.45C25.6256 29.6 25.6756 28.55 26.2506 27.575L28.4756 23.7C28.9756 22.85 30.0506 22.575 30.8756 23.05C31.7256 23.525 32.0256 24.6 31.5256 25.45L29.9256 28.225H31.3256C32.4506 28.225 33.3756 28.725 33.8756 29.575C34.3756 30.425 34.3256 31.475 33.7506 32.45Z" fill="#F7941D"/>
<path d="M53.125 31.875C54.175 31.875 55 31.025 55 30C55 28.95 54.175 28.125 53.125 28.125H50V22.625H53.125C54.175 22.625 55 21.8 55 20.75C55 19.725 54.175 18.875 53.125 18.875H49.425C48.225 14.9 45.1 11.775 41.125 10.575V6.875C41.125 5.85 40.275 5 39.25 5C38.225 5 37.375 5.85 37.375 6.875V10H31.875V6.875C31.875 5.85 31.025 5 30 5C28.975 5 28.125 5.85 28.125 6.875V10H22.65V6.875C22.65 5.85 21.8 5 20.775 5C19.725 5 18.9 5.85 18.9 6.875V10.575C14.9 11.775 11.775 14.9 10.575 18.875H6.875C5.85 18.875 5 19.725 5 20.75C5 21.8 5.85 22.625 6.875 22.625H10V28.125H6.875C5.85 28.125 5 28.95 5 30C5 31.025 5.85 31.875 6.875 31.875H10V37.375H6.875C5.85 37.375 5 38.2 5 39.25C5 40.275 5.85 41.125 6.875 41.125H10.575C11.75 45.1 14.9 48.225 18.9 49.425V53.125C18.9 54.15 19.725 55 20.775 55C21.8 55 22.65 54.15 22.65 53.125V50H28.15V53.125C28.15 54.15 28.975 55 30.025 55C31.05 55 31.9 54.15 31.9 53.125V50H37.375V53.125C37.375 54.15 38.225 55 39.25 55C40.275 55 41.125 54.15 41.125 53.125V49.425C45.1 48.225 48.225 45.1 49.425 41.125H53.125C54.175 41.125 55 40.275 55 39.25C55 38.2 54.175 37.375 53.125 37.375H50V31.875H53.125ZM43.15 35.65C43.15 39.775 39.775 43.15 35.65 43.15H24.35C20.225 43.15 16.85 39.775 16.85 35.65V24.35C16.85 20.225 20.225 16.85 24.35 16.85H35.65C39.775 16.85 43.15 20.225 43.15 24.35V35.65Z" fill="#F7941D"/>
</svg>
