<svg width="29" height="29" viewBox="0 0 29 29" fill="none" xmlns="http://www.w3.org/2000/svg">
<path d="M14.5012 0.890625C10.7882 0.890625 10.3221 0.906895 8.86391 0.973203C7.4084 1.03992 6.41486 1.27029 5.54561 1.6084C4.64627 1.95758 3.88352 2.42475 3.12363 3.1849C2.36307 3.94492 1.8959 4.70768 1.54563 5.6066C1.20656 6.47613 0.975918 7.47008 0.91043 8.9249C0.845215 10.3833 0.828125 10.8495 0.828125 14.5626C0.828125 18.2758 0.844531 18.7404 0.910703 20.1986C0.977695 21.6541 1.20807 22.6476 1.5459 23.5169C1.89535 24.4162 2.36252 25.179 3.12268 25.9389C3.88242 26.6994 4.64518 27.1677 5.54383 27.5169C6.41377 27.855 7.40744 28.0854 8.86268 28.1521C10.3211 28.2184 10.7867 28.2346 14.4996 28.2346C18.213 28.2346 18.6776 28.2184 20.1358 28.1521C21.5913 28.0854 22.586 27.855 23.4559 27.5169C24.3548 27.1677 25.1165 26.6994 25.8761 25.9389C26.6367 25.179 27.1037 24.4162 27.4541 23.5173C27.7902 22.6476 28.0209 21.6538 28.0893 20.1989C28.1548 18.7406 28.1719 18.2758 28.1719 14.5626C28.1719 10.8495 28.1548 10.3836 28.0893 8.92518C28.0209 7.46967 27.7902 6.47627 27.4541 5.60701C27.1037 4.70768 26.6367 3.94492 25.8761 3.1849C25.1157 2.42447 24.3551 1.9573 23.4551 1.60854C22.5835 1.27029 21.5894 1.03979 20.1339 0.973203C18.6755 0.906895 18.2112 0.890625 14.497 0.890625H14.5012ZM13.2747 3.35443C13.6388 3.35389 14.045 3.35443 14.5012 3.35443C18.1518 3.35443 18.5843 3.36756 20.0259 3.43305C21.3589 3.49402 22.0824 3.71674 22.5644 3.90391C23.2024 4.15164 23.6573 4.44791 24.1355 4.92656C24.614 5.40508 24.9102 5.86076 25.1586 6.49883C25.3458 6.98008 25.5688 7.70359 25.6295 9.0366C25.6949 10.4779 25.7092 10.9107 25.7092 14.5595C25.7092 18.2082 25.6949 18.6412 25.6295 20.0824C25.5685 21.4154 25.3458 22.1389 25.1586 22.6203C24.9109 23.2584 24.614 23.7127 24.1355 24.1909C23.657 24.6694 23.2027 24.9656 22.5644 25.2134C22.083 25.4014 21.3589 25.6236 20.0259 25.6846C18.5846 25.7501 18.1518 25.7643 14.5012 25.7643C10.8506 25.7643 10.4179 25.7501 8.9767 25.6846C7.64369 25.623 6.92018 25.4003 6.43783 25.2132C5.7999 24.9653 5.34408 24.6692 4.86557 24.1906C4.38705 23.7121 4.09092 23.2575 3.8425 22.6192C3.65533 22.1378 3.43234 21.4143 3.37164 20.0813C3.30615 18.64 3.29303 18.2071 3.29303 14.5561C3.29303 10.9051 3.30615 10.4745 3.37164 9.03318C3.43262 7.70018 3.65533 6.97666 3.8425 6.49473C4.09037 5.85666 4.38705 5.40098 4.8657 4.92246C5.34422 4.44395 5.7999 4.14768 6.43797 3.89939C6.9199 3.71141 7.64369 3.48924 8.9767 3.42799C10.2379 3.37098 10.7267 3.35389 13.2747 3.35102V3.35443ZM21.7993 5.62451C20.8935 5.62451 20.1587 6.35869 20.1587 7.26459C20.1587 8.17035 20.8935 8.90522 21.7993 8.90522C22.705 8.90522 23.4399 8.17035 23.4399 7.26459C23.4399 6.35883 22.705 5.62396 21.7993 5.62396V5.62451ZM14.5012 7.54145C10.6239 7.54145 7.48018 10.6852 7.48018 14.5626C7.48018 18.4401 10.6239 21.5823 14.5012 21.5823C18.3787 21.5823 21.5213 18.4401 21.5213 14.5626C21.5213 10.6853 18.3784 7.54145 14.501 7.54145H14.5012ZM14.5012 10.0053C17.0181 10.0053 19.0586 12.0455 19.0586 14.5626C19.0586 17.0795 17.0181 19.12 14.5012 19.12C11.9842 19.12 9.94398 17.0795 9.94398 14.5626C9.94398 12.0455 11.9842 10.0053 14.5012 10.0053Z" fill="white"/>
</svg>
