<svg width="61" height="61" viewBox="0 0 61 61" fill="none" xmlns="http://www.w3.org/2000/svg">
<path d="M55.425 46.325C55.425 47.225 55.225 48.15 54.8 49.05C54.375 49.95 53.825 50.8 53.1 51.6C51.875 52.95 50.525 53.925 49 54.55C47.5 55.175 45.875 55.5 44.125 55.5C41.575 55.5 38.85 54.9 35.975 53.675C33.1 52.45 30.225 50.8 27.375 48.725C24.5 46.625 21.775 44.3 19.175 41.725C16.6 39.125 14.275 36.4 12.2 33.55C10.15 30.7 8.5 27.85 7.3 25.025C6.1 22.175 5.5 19.45 5.5 16.85C5.5 15.15 5.8 13.525 6.4 12.025C7 10.5 7.95 9.1 9.275 7.85C10.875 6.275 12.625 5.5 14.475 5.5C15.175 5.5 15.875 5.65 16.5 5.95C17.15 6.25 17.725 6.7 18.175 7.35L23.975 15.525C24.425 16.15 24.75 16.725 24.975 17.275C25.2 17.8 25.325 18.325 25.325 18.8C25.325 19.4 25.15 20 24.8 20.575C24.475 21.15 24 21.75 23.4 22.35L21.5 24.325C21.225 24.6 21.1 24.925 21.1 25.325C21.1 25.525 21.125 25.7 21.175 25.9C21.25 26.1 21.325 26.25 21.375 26.4C21.825 27.225 22.6 28.3 23.7 29.6C24.825 30.9 26.025 32.225 27.325 33.55C28.675 34.875 29.975 36.1 31.3 37.225C32.6 38.325 33.675 39.075 34.525 39.525C34.65 39.575 34.8 39.65 34.975 39.725C35.175 39.8 35.375 39.825 35.6 39.825C36.025 39.825 36.35 39.675 36.625 39.4L38.525 37.525C39.15 36.9 39.75 36.425 40.325 36.125C40.9 35.775 41.475 35.6 42.1 35.6C42.575 35.6 43.075 35.7 43.625 35.925C44.175 36.15 44.75 36.475 45.375 36.9L53.65 42.775C54.3 43.225 54.75 43.75 55.025 44.375C55.275 45 55.425 45.625 55.425 46.325Z" stroke="#F7941D" stroke-width="1.5" stroke-miterlimit="10"/>
<path d="M46.75 23C46.75 21.5 45.575 19.2 43.825 17.325C42.225 15.6 40.1 14.25 38 14.25" stroke="#F7941D" stroke-width="1.5" stroke-linecap="round" stroke-linejoin="round"/>
<path d="M55.5 23C55.5 13.325 47.675 5.5 38 5.5" stroke="#F7941D" stroke-width="1.5" stroke-linecap="round" stroke-linejoin="round"/>
</svg>
