<svg width="64" height="60" viewBox="0 0 64 60" fill="none" xmlns="http://www.w3.org/2000/svg">
<path d="M56.8661 38.75C57.6067 38.75 58.1886 39.3 58.1886 40V42.5C58.1886 46.65 54.6444 50 50.2538 50C50.2538 45.875 46.6832 42.5 42.319 42.5C37.9549 42.5 34.3842 45.875 34.3842 50H29.0944C29.0944 45.875 25.5237 42.5 21.1596 42.5C16.7955 42.5 13.2248 45.875 13.2248 50C8.83424 50 5.29004 46.65 5.29004 42.5V37.5C5.29004 36.125 6.48026 35 7.93497 35H33.0618C36.7118 35 39.6741 32.2 39.6741 28.75V15C39.6741 13.625 40.8643 12.5 42.319 12.5H44.5408C46.4451 12.5 48.1908 13.475 49.1429 15.025L50.8357 17.825C51.0737 18.225 50.7563 18.75 50.2538 18.75C46.6038 18.75 43.6415 21.55 43.6415 25V32.5C43.6415 35.95 46.6038 38.75 50.2538 38.75H56.8661Z" fill="#F7941D"/>
<path d="M21.1595 55C24.081 55 26.4493 52.7614 26.4493 50C26.4493 47.2386 24.081 45 21.1595 45C18.238 45 15.8696 47.2386 15.8696 50C15.8696 52.7614 18.238 55 21.1595 55Z" fill="#F7941D"/>
<path d="M42.3192 55C45.2407 55 47.609 52.7614 47.609 50C47.609 47.2386 45.2407 45 42.3192 45C39.3976 45 37.0293 47.2386 37.0293 50C37.0293 52.7614 39.3976 55 42.3192 55Z" fill="#F7941D"/>
<path d="M58.1886 31.325V35H50.2538C48.7991 35 47.6089 33.875 47.6089 32.5V25C47.6089 23.625 48.7991 22.5 50.2538 22.5H53.6658L57.5009 28.85C57.9506 29.6 58.1886 30.45 58.1886 31.325Z" fill="#F7941D"/>
<path d="M34.5958 5H15.0498C10.3154 5 6.34801 8.2 5.47518 12.45H17.0335C18.0386 12.45 18.8321 13.225 18.8321 14.175C18.8321 15.125 18.0386 15.875 17.0335 15.875H5.29004V19.325H12.1669C13.1719 19.325 13.9919 20.1 13.9919 21.05C13.9919 22 13.1719 22.75 12.1669 22.75H5.29004V26.2H7.32663C8.33171 26.2 9.15163 26.975 9.15163 27.925C9.15163 28.875 8.33171 29.625 7.32663 29.625H5.29004V30.2C5.29004 31.575 6.48026 32.7 7.93497 32.7H32.1361C34.8339 32.7 37.0292 30.625 37.0292 28.075V7.3C37.0292 6.025 35.9447 5 34.5958 5Z" fill="#F7941D"/>
<path d="M5.4749 12.4512H5.07816H2.48613C1.48106 12.4512 0.661133 13.2262 0.661133 14.1762C0.661133 15.1262 1.48106 15.8762 2.48613 15.8762H4.89302H5.28976V14.2262C5.28976 13.6262 5.3691 13.0262 5.4749 12.4512Z" fill="#F7941D"/>
<path d="M4.89302 19.3262H2.48613C1.48106 19.3262 0.661133 20.1012 0.661133 21.0512C0.661133 22.0012 1.48106 22.7512 2.48613 22.7512H4.89302H5.28976V19.3262H4.89302Z" fill="#F7941D"/>
<path d="M4.89302 26.2012H2.48613C1.48106 26.2012 0.661133 26.9762 0.661133 27.9262C0.661133 28.8762 1.48106 29.6262 2.48613 29.6262H4.89302H5.28976V26.2012H4.89302Z" fill="#F7941D"/>
</svg>
